<?xml version="1.0" standalone="no"?>
<!DOCTYPE svg PUBLIC "-//W3C//DTD SVG 20010904//EN"
 "http://www.w3.org/TR/2001/REC-SVG-20010904/DTD/svg10.dtd">
<svg version="1.0" xmlns="http://www.w3.org/2000/svg"
 width="300.000000pt" height="300.000000pt" viewBox="0 0 300.000000 300.000000"
 preserveAspectRatio="xMidYMid meet">
<metadata>
Created by potrace 1.14, written by Peter Selinger 2001-2017
</metadata>
<g transform="translate(0.000000,300.000000) scale(0.100000,-0.100000)"
fill="#000000" stroke="none">
<path d="M1239 2744 c-367 -66 -687 -292 -879 -620 -57 -98 -115 -252 -139
-369 -22 -113 -36 -294 -24 -312 5 -7 18 -10 31 -6 19 5 22 12 22 62 0 169 47
367 124 527 169 345 485 587 863 660 56 11 137 17 223 17 343 0 639 -126 876
-374 94 -99 151 -180 209 -298 43 -87 95 -235 95 -272 0 -11 7 -22 15 -25 8
-4 12 -11 8 -17 -4 -7 0 -8 11 -4 10 4 20 7 22 7 23 0 -33 194 -90 316 -176
372 -526 638 -933 709 -106 19 -330 18 -434 -1z"/>
<path d="M1240 2560 c-493 -105 -840 -532 -840 -1031 0 -86 8 -118 23 -91 2 4
2 1 0 -6 -1 -8 -3 -20 -3 -28 0 -8 -7 -14 -15 -14 -14 0 -14 -4 0 -31 10 -18
19 -69 22 -120 6 -89 6 -89 -18 -89 -13 0 -47 -3 -75 -6 l-51 -6 -7 91 c-7 87
-9 92 -29 89 -22 -3 -22 -5 -25 -235 -1 -153 1 -233 8 -233 6 0 10 54 10 148
l1 147 21 -62 c19 -58 23 -63 49 -63 33 0 36 11 14 63 l-15 36 58 6 c78 9 82
11 83 42 l0 28 12 -25 c10 -21 12 -1 15 119 2 134 4 144 25 162 12 10 35 18
50 19 34 0 63 14 100 49 l29 26 -22 -38 c-22 -37 -21 -62 2 -39 22 22 65 13
101 -21 40 -37 53 -91 44 -180 -4 -42 -10 -56 -37 -78 -19 -16 -27 -29 -21
-33 6 -4 11 -4 11 0 0 4 11 -5 25 -20 24 -26 25 -32 25 -166 l0 -139 -60 -7
c-33 -4 -63 -11 -66 -15 -3 -5 0 -9 6 -9 6 0 23 -14 37 -30 33 -39 124 -109
201 -154 317 -186 745 -186 1057 1 133 80 265 203 340 316 33 49 38 66 41 124
2 36 10 73 17 82 7 9 12 26 11 39 -2 29 -14 42 -14 16 0 -10 -8 -28 -17 -39
l-16 -20 8 20 c4 11 9 37 12 58 3 20 9 37 13 37 7 0 30 53 30 66 0 2 -9 4 -20
4 -13 0 -20 7 -20 20 0 11 5 20 11 20 5 0 7 -4 4 -10 -3 -5 -2 -10 3 -10 5 0
12 9 15 20 4 15 0 20 -14 20 -12 0 -19 7 -19 20 0 11 7 20 15 20 8 0 15 5 15
11 0 6 -7 9 -15 5 -23 -8 -18 17 6 32 12 7 18 16 15 19 -3 3 -12 0 -21 -7 -13
-11 -15 -9 -15 14 0 15 -4 25 -10 21 -5 -3 -7 0 -4 9 3 8 12 12 20 9 8 -3 14
0 14 6 0 6 -4 11 -10 11 -14 0 -13 36 2 77 10 29 10 36 -2 43 -13 8 -12 10 3
10 9 0 17 5 17 11 0 8 16 10 50 6 l50 -6 -6 27 c-49 223 -127 377 -269 530
-149 160 -357 275 -575 316 -111 22 -301 20 -410 -4z m-600 -675 l0 -185 60 0
c53 0 60 -2 60 -20 0 -18 -7 -20 -80 -20 l-80 0 0 205 c0 198 1 205 20 205 19
0 20 -7 20 -185z m185 153 c10 -60 45 -333 45 -355 0 -26 -25 -31 -34 -7 -3 9
-6 28 -6 43 0 17 -11 38 -29 55 l-29 28 -7 -31 c-4 -20 -13 -31 -24 -31 -16 0
-16 10 5 163 12 89 22 163 23 165 1 1 12 2 26 2 19 0 25 -6 30 -32z m319 10
c22 -31 21 -70 -1 -66 -10 2 -19 13 -21 26 -3 17 -10 22 -33 22 l-29 0 0 -64
c0 -67 7 -79 51 -89 34 -9 49 -45 49 -122 0 -75 -14 -95 -69 -95 -46 0 -61 14
-61 58 0 38 23 41 28 4 3 -17 10 -22 33 -22 l29 0 0 63 c0 63 -11 87 -39 87
-8 0 -23 7 -33 17 -15 13 -18 31 -18 98 0 92 7 105 61 105 28 0 42 -6 53 -22z
m181 0 c2 -13 15 -105 28 -205 22 -170 22 -183 6 -183 -17 0 -29 27 -29 66 0
11 -13 33 -29 48 l-29 28 -7 -44 c-13 -88 -16 -98 -34 -98 -16 0 -15 15 10
203 16 111 28 203 29 205 0 1 11 2 25 2 17 0 26 -7 30 -22z m145 -163 l0 -185
40 0 c22 0 40 -2 40 -4 0 -2 3 -11 6 -20 5 -14 -3 -16 -55 -16 l-61 0 0 205
c0 176 2 205 15 205 13 0 15 -27 15 -185z m180 1 l0 -185 42 -3 c31 -2 44 -8
46 -20 3 -16 -5 -18 -57 -18 l-61 0 0 205 c0 176 2 205 15 205 13 0 15 -27 15
-184z m250 164 c0 -16 -7 -20 -35 -20 l-35 0 0 -75 c0 -74 0 -75 26 -75 31 0
28 -23 -4 -28 -20 -3 -22 -9 -22 -78 l0 -74 35 0 c28 0 35 -4 35 -20 0 -18 -7
-20 -55 -20 l-55 0 0 205 0 205 55 0 c48 0 55 -2 55 -20z m433 -370 c-3 -12
-8 -19 -11 -16 -5 6 5 36 12 36 2 0 2 -9 -1 -20z m-35 -72 l3 -68 -33 0 c-72
0 -77 -5 -76 -77 l1 -65 49 6 48 7 0 -61 c0 -57 -1 -60 -24 -60 -14 0 -36 -4
-50 -10 l-26 -10 0 -133 0 -134 -37 -6 c-41 -7 -49 -4 -38 13 6 9 10 9 16 -1
7 -11 9 -11 9 2 0 9 -8 20 -17 23 -15 6 -15 8 -3 17 13 8 13 10 0 19 -10 6
-16 6 -18 0 -2 -6 -15 -10 -28 -10 -13 0 -24 -5 -24 -11 0 -7 9 -9 23 -6 20 6
21 5 4 -7 -10 -8 -15 -20 -11 -30 3 -9 1 -16 -5 -16 -6 0 -11 -7 -11 -15 0 -8
-3 -15 -7 -15 -5 0 -6 39 -4 87 3 73 1 89 -14 99 -16 12 -16 15 4 47 20 32 21
48 21 240 0 154 3 208 13 214 13 8 180 31 212 29 18 -1 20 -9 23 -68z m-370 5
c13 -8 21 -17 18 -20 -3 -4 -1 -12 5 -19 17 -21 28 -134 13 -134 -7 0 -19 -3
-28 -6 -12 -5 -16 1 -17 22 l-2 29 -4 -27 c-2 -16 -10 -28 -16 -28 -7 0 -22
-3 -34 -6 -21 -6 -23 -3 -23 32 0 47 -13 69 -34 61 -12 -5 -16 -20 -16 -55 0
-55 8 -65 103 -126 37 -25 57 -45 57 -58 0 -11 7 -26 15 -34 17 -18 21 -156 6
-197 -25 -65 -98 -101 -191 -94 -58 5 -62 4 -40 -9 14 -7 20 -13 13 -14 -6 0
-26 12 -43 26 l-31 27 -36 -34 -35 -34 28 45 c26 41 28 52 25 128 -2 75 -1 82
17 82 10 0 40 3 66 6 l46 7 0 -67 c0 -57 2 -66 18 -66 30 0 42 21 42 73 0 42
-5 53 -31 78 -16 15 -49 38 -71 51 -64 36 -82 67 -86 153 -7 129 28 182 139
214 67 20 88 19 127 -6z m-403 -33 c33 -13 64 -80 65 -140 0 -41 -2 -45 -24
-46 -18 -1 -26 4 -29 20 -4 17 -5 17 -6 -5 -1 -23 -6 -27 -36 -31 l-34 -4 -3
46 c-2 37 -7 45 -22 45 -12 0 -23 -10 -28 -27 -14 -40 17 -95 66 -122 46 -25
90 -63 92 -80 1 -6 2 -17 3 -24 0 -7 5 -11 10 -8 24 15 30 -168 6 -214 -32
-61 -140 -104 -210 -83 -19 6 -35 7 -35 2 0 -4 15 -13 33 -18 23 -7 26 -9 10
-10 -12 -1 -35 10 -51 24 -37 31 -39 31 -75 -2 l-29 -28 31 52 c26 42 30 56
22 72 -13 23 -14 90 -3 108 4 7 36 17 70 21 l62 9 0 -63 c0 -35 4 -65 8 -68 5
-3 18 2 30 10 17 12 22 25 22 61 0 39 -5 50 -35 78 -19 19 -54 44 -77 57 -58
31 -78 74 -78 166 0 117 26 157 121 191 63 23 88 25 124 11z m-407 -54 c15 -8
41 -28 57 -46 l30 -31 3 -232 c2 -225 2 -233 -20 -272 -33 -57 -95 -87 -170
-83 -36 3 -64 11 -77 22 -21 19 -43 13 -85 -23 -12 -11 -8 1 12 34 29 48 30
52 20 115 -14 91 -2 350 17 398 29 68 105 132 158 132 15 0 40 -6 55 -14z
m885 -6 c-3 -12 -8 -19 -11 -16 -5 6 5 36 12 36 2 0 2 -9 -1 -20z m-775 -42
c-6 -18 -13 -27 -15 -21 -4 11 13 53 22 53 2 0 -1 -15 -7 -32z m1045 -215 c-7
-2 -19 -2 -25 0 -7 3 -2 5 12 5 14 0 19 -2 13 -5z m-153 -286 c0 -2 -14 -16
-32 -33 -18 -16 -26 -20 -18 -9 19 27 50 53 50 42z m-1062 -144 c-10 -2 -28
-2 -40 0 -13 2 -5 4 17 4 22 1 32 -1 23 -4z m-271 -29 c-3 -3 -12 -4 -19 -1
-8 3 -5 6 6 6 11 1 17 -2 13 -5z"/>
<path d="M787 1940 c-11 -39 -8 -95 5 -108 28 -28 29 -8 9 98 -7 33 -7 34 -14
10z"/>
<path d="M1286 1929 c-10 -52 -7 -86 9 -99 9 -7 17 -11 19 -9 4 5 -12 131 -18
136 -2 2 -6 -11 -10 -28z"/>
<path d="M2100 1309 c0 -5 5 -7 10 -4 6 3 10 8 10 11 0 2 -4 4 -10 4 -5 0 -10
-5 -10 -11z"/>
<path d="M2080 1210 c0 -5 5 -10 11 -10 5 0 7 5 4 10 -3 6 -8 10 -11 10 -2 0
-4 -4 -4 -10z"/>
<path d="M2055 1200 c3 -5 8 -10 11 -10 2 0 4 5 4 10 0 6 -5 10 -11 10 -5 0
-7 -4 -4 -10z"/>
<path d="M2100 1180 c0 -5 5 -10 11 -10 5 0 7 5 4 10 -3 6 -8 10 -11 10 -2 0
-4 -4 -4 -10z"/>
<path d="M2091 1105 c-8 -14 -14 -16 -17 -7 -9 19 -23 14 -21 -8 1 -11 7 -20
15 -20 19 0 44 28 40 42 -3 8 -9 5 -17 -7z"/>
<path d="M1031 1401 c-13 -24 -15 -409 -2 -429 5 -8 17 -12 27 -10 17 3 19 15
21 138 2 121 1 133 -12 116 -8 -11 -15 -15 -15 -9 0 6 7 16 15 23 24 20 17
183 -7 188 -9 2 -21 -6 -27 -17z"/>
<path d="M2920 1681 l0 -58 -40 -7 -40 -6 0 -265 0 -265 -22 -4 c-13 -3 -44
-8 -71 -11 -26 -3 -45 -10 -43 -14 3 -4 31 -4 63 0 32 4 66 8 76 8 16 1 17 21
17 270 l0 270 43 3 42 3 3 68 c2 55 0 67 -13 67 -12 0 -15 -12 -15 -59z"/>
<path d="M2520 1366 l0 -325 -47 -6 c-76 -10 -97 -16 -87 -24 11 -10 174 9
174 20 0 5 -4 9 -10 9 -6 0 -10 115 -10 325 0 210 -4 325 -10 325 -6 0 -10
-115 -10 -324z"/>
<path d="M2757 1626 c-4 -15 -6 -31 -2 -34 10 -10 16 6 13 35 l-3 28 -8 -29z"/>
<path d="M2680 1630 c0 -5 9 -10 20 -10 11 0 20 5 20 10 0 6 -9 10 -20 10 -11
0 -20 -4 -20 -10z"/>
<path d="M2733 1633 c4 -3 -1 -12 -11 -19 -9 -7 -13 -16 -9 -21 5 -4 15 1 23
11 17 24 18 36 2 36 -6 0 -8 -3 -5 -7z"/>
<path d="M2386 1605 c-3 -9 -6 -22 -5 -28 0 -7 5 -1 10 12 5 13 8 26 5 28 -2
2 -6 -3 -10 -12z"/>
<path d="M2628 1583 c-32 -8 -20 -26 14 -19 l31 6 -6 -112 c-4 -62 -11 -140
-18 -173 -6 -33 -12 -69 -14 -80 -4 -28 -48 -149 -79 -220 -68 -152 -221 -339
-371 -453 -94 -72 -288 -166 -404 -197 -345 -91 -697 -33 -996 163 -38 26
-114 89 -168 141 -92 89 -98 93 -112 75 -8 -10 -15 -22 -15 -25 0 -3 42 -46
93 -95 189 -184 402 -293 660 -339 145 -26 395 -17 529 19 367 98 664 340 823
670 38 81 55 128 59 171 4 36 14 71 26 87 11 15 20 37 20 50 -1 22 -2 22 -26
-7 -24 -29 -25 -30 -15 -4 5 14 14 89 20 165 6 77 14 149 16 162 5 19 1 22
-22 21 -16 -1 -36 -3 -45 -6z"/>
<path d="M621 1285 c0 -41 4 -77 8 -79 4 -3 17 2 29 10 17 12 22 25 22 64 0
64 -7 80 -36 80 -22 0 -23 -3 -23 -75z"/>
<path d="M620 962 l0 -149 -39 -11 c-65 -20 -81 -16 -81 18 0 26 4 30 28 31
15 1 30 1 35 0 4 0 7 4 7 9 0 6 -18 10 -40 10 l-40 0 0 -44 c0 -26 5 -46 13
-49 6 -2 42 0 80 5 62 10 67 12 67 35 0 22 2 24 15 13 20 -17 20 0 -1 80 -9
37 -14 90 -12 131 3 60 1 69 -14 69 -16 0 -18 -14 -18 -148z"/>
<path d="M430 991 c0 -67 -19 -141 -45 -175 -14 -18 -25 -44 -25 -58 0 -23 -3
-25 -102 -36 -94 -11 -118 -17 -107 -25 3 -3 214 18 227 22 1 1 2 13 2 27 0
14 11 40 24 57 13 18 29 50 35 72 14 50 14 155 1 155 -5 0 -10 -17 -10 -39z"/>
<path d="M508 1023 c-10 -2 -18 -9 -18 -15 0 -6 10 -8 23 -4 12 3 30 6 40 6 9
0 17 5 17 10 0 10 -30 12 -62 3z"/>
<path d="M427 817 c-16 -24 -15 -27 13 -65 37 -52 47 -57 59 -33 16 28 14 38
-9 44 -11 3 -20 14 -20 24 0 11 -6 27 -13 37 -13 17 -14 17 -30 -7z"/>
<path d="M130 741 c0 -5 16 -9 36 -9 25 0 33 3 23 9 -18 11 -59 12 -59 0z"/>
</g>
</svg>
